<svg xmlns="http://www.w3.org/2000/svg" width="120" height="84" viewBox="0 0 120 84"><title>Bean Around spring botanical edge illustration</title><path d="M7 76Q35 57 56 37T110 16M42 53L32 20M69 30L77 5" fill="none" stroke="#907157" stroke-width="2.4"/><path d="M13 68Q10 43 36 47Q34 67 13 68M68 31Q65 12 52 11Q47 29 68 31M88 25Q91 41 109 34Q103 17 88 25" fill="#90a57a" stroke="#6d8861" stroke-width="1.2"/><g transform="translate(38 38) scale(1)" fill="#e4bdb7" stroke="#c7948b" stroke-width=".8"><ellipse cy="-8" rx="6" ry="9"/><ellipse cy="-8" rx="6" ry="9" transform="rotate(72)"/><ellipse cy="-8" rx="6" ry="9" transform="rotate(144)"/><ellipse cy="-8" rx="6" ry="9" transform="rotate(216)"/><ellipse cy="-8" rx="6" ry="9" transform="rotate(288)"/><circle r="3.5" fill="#d3b067" stroke="none"/></g><g transform="translate(72 24) scale(0.9)" fill="#e4bdb7" stroke="#c7948b" stroke-width=".8"><ellipse cy="-8" rx="6" ry="9"/><ellipse cy="-8" rx="6" ry="9" transform="rotate(72)"/><ellipse cy="-8" rx="6" ry="9" transform="rotate(144)"/><ellipse cy="-8" rx="6" ry="9" transform="rotate(216)"/><ellipse cy="-8" rx="6" ry="9" transform="rotate(288)"/><circle r="3.5" fill="#d3b067" stroke="none"/></g><g transform="translate(94 14) scale(0.65)" fill="#e4bdb7" stroke="#c7948b" stroke-width=".8"><ellipse cy="-8" rx="6" ry="9"/><ellipse cy="-8" rx="6" ry="9" transform="rotate(72)"/><ellipse cy="-8" rx="6" ry="9" transform="rotate(144)"/><ellipse cy="-8" rx="6" ry="9" transform="rotate(216)"/><ellipse cy="-8" rx="6" ry="9" transform="rotate(288)"/><circle r="3.5" fill="#d3b067" stroke="none"/></g></svg>