<svg xmlns="http://www.w3.org/2000/svg" width="120" height="84" viewBox="0 0 120 84"><title>Bean Around summer botanical edge illustration</title><path d="M6 77Q50 45 99 7" fill="none" stroke="#627856" stroke-width="2.5"/><g stroke="#627756" stroke-width="1.1"><path d="M24 64Q-2 45 12 21Q41 26 35 57Z" fill="#7d9a70"/><path d="M42 51Q40 17 67 10Q83 35 50 48Z" fill="#6f8a60"/><path d="M52 46Q82 28 105 45Q99 66 69 58Z" fill="#95aa70"/><path d="M75 27Q82 6 105 3Q112 26 89 29Z" fill="#759064"/></g><path d="M19 35L29 60M46 46L64 18M61 48L95 49M80 24L101 9" fill="none" stroke="#dce2ba" stroke-width="1.3" opacity=".65"/></svg>